<svg width="1440" height="370" viewBox="0 0 1440 370" fill="none" xmlns="http://www.w3.org/2000/svg">
<path fill-rule="evenodd" clip-rule="evenodd" d="M-1 63.0639L59.0833 57.9605C119.167 52.4925 239.333 41.9211 359.5 36.8177C479.667 31.7142 599.833 31.7142 720 36.8177C840.167 41.9211 960.333 52.4925 1080.5 47.3891C1200.67 41.9211 1320.83 21.1428 1380.92 10.5714L1441 0V370H1380.92C1320.83 370 1200.67 370 1080.5 370C960.333 370 840.167 370 720 370C599.833 370 479.667 370 359.5 370C239.333 370 119.167 370 59.0833 370H-1V63.0639Z" fill="#0B0B0B"/>
</svg>
