<svg width="46" height="67" viewBox="0 0 46 67" fill="none" xmlns="http://www.w3.org/2000/svg">
<g clip-path="url(#clip0_172_533)">
<path d="M6.10971 32.5895L15.7528 62.1843L19.1922 48.1125L6.10971 32.5895ZM12.3099 43.8176L16.5123 48.7897L15.409 53.3039L12.3099 43.8176Z" fill="#5A9DED"/>
<path d="M37.6016 41.8398L15.7527 62.1839L19.192 48.1121L37.6016 41.8398ZM27.111 48.1651L21.204 50.1675L20.1006 54.6817L27.111 48.1651Z" fill="#53D3E0"/>
<path d="M22.6484 25.2114L10.6635 28.5155L9.99101 29.6458L10.9423 31.199L21.928 28.1589L22.6484 25.2114Z" fill="#D995D1"/>
<path d="M26.6365 26.3832L35.5089 35.814L35.5757 37.1616L34.0435 37.9852L25.9161 29.3307L26.6365 26.3832Z" fill="#A6E276"/>
<path d="M29.8208 4.62549L6.84944 29.562L19.9384 45.0582L29.8208 4.62549ZM25.1775 13.4254L18.7264 39.8193L10.1745 29.6997L25.1775 13.4254Z" fill="#FF9C92"/>
<path d="M29.8209 4.6256L38.3415 38.8128L19.9385 45.0583L29.8209 4.6256ZM29.8286 14.7917L23.3775 41.1857L35.3991 37.1097L29.8286 14.7917Z" fill="#FFE94D"/>
</g>
<defs>
<clipPath id="clip0_172_533">
<rect width="32.8226" height="59.2806" fill="white" transform="matrix(-0.959461 -0.281841 -0.237426 0.971406 45.5669 9.25098)"/>
</clipPath>
</defs>
</svg>
