<svg width="46" height="70" viewBox="0 0 46 70" fill="none" xmlns="http://www.w3.org/2000/svg">
<g clip-path="url(#clip0_123_56)">
<path d="M39.4573 33.7541L29.8142 64.376L26.3749 49.8159L39.4573 33.7541ZM33.2571 45.372L29.0547 50.5166L30.158 55.1874L33.2571 45.372Z" fill="#5A9DED"/>
<path d="M7.96521 43.3262L29.8141 64.3763L26.3748 49.8161L7.96521 43.3262ZM18.4558 49.871L24.3628 51.9429L25.4661 56.6137L18.4558 49.871Z" fill="#53D3E0"/>
<path d="M22.9185 26.1206L34.9034 29.5393L35.5759 30.7089L34.6246 32.316L23.6389 29.1704L22.9185 26.1206Z" fill="#D995D1"/>
<path d="M18.9303 27.3327L10.0579 37.0908L9.99108 38.4851L11.5233 39.3373L19.6507 30.3825L18.9303 27.3327Z" fill="#A6E276"/>
<path d="M15.746 4.81982L38.7173 30.6217L25.6283 46.6557L15.746 4.81982ZM20.3892 13.9251L26.8403 41.235L35.3923 30.7643L20.3892 13.9251Z" fill="#FF9C92"/>
<path d="M15.746 4.82006L7.22536 40.1937L25.6284 46.6559L15.746 4.82006ZM15.7383 15.339L22.1894 42.6489L10.1678 38.4315L15.7383 15.339Z" fill="#FFE94D"/>
</g>
<defs>
<clipPath id="clip0_123_56">
<rect width="32.9145" height="61.2237" fill="white" transform="matrix(0.956781 -0.290808 0.229891 0.973217 0 9.60596)"/>
</clipPath>
</defs>
</svg>
