<svg width="19" height="19" viewBox="0 0 19 19" fill="none" xmlns="http://www.w3.org/2000/svg">
<path d="M16.062 0.737305H18.2262V5.48316H16.1226C14.2421 5.48316 12.7176 6.35222 12.7176 7.42427V7.43121V7.43086V7.80266H16.844V11.7671H12.7176V18.8324H4.39271V11.7671H0.251831V7.80262H4.39268V7.43252V7.43238C4.39268 3.75005 9.60732 0.762044 16.0565 0.737358L16.0606 0.737322L16.062 0.737305ZM16.7834 1.5598H16.062C10.4108 1.59232 5.84985 4.2074 5.83547 7.43171V8.62512H1.69468V10.9446H5.83544V18.0099H11.2748V10.9446H15.4012V8.62514H11.2748V7.43252V7.42428C11.2748 5.89798 13.4452 4.66066 16.1226 4.66066H16.7863L16.7834 1.5598Z" fill="#53D3E0"/>
</svg>
