<svg width="55" height="60" viewBox="0 0 55 60" fill="none" xmlns="http://www.w3.org/2000/svg">
<g clip-path="url(#clip0_123_63)">
<path d="M27.5 59.709C42.68 59.709 55 46.3342 55 29.8545C55 13.3748 42.68 0 27.5 0C12.32 0 0 13.3748 0 29.8545C0 46.3342 12.32 59.709 27.5 59.709Z" fill="#00EF8B"/>
<path d="M39.578 25.1973H31.812V33.6282H39.578V25.1973Z" fill="white"/>
<path d="M24.0461 36.7809C24.0461 37.4018 23.8701 38.0228 23.5621 38.5482C23.2321 39.0737 22.7921 39.4797 22.2641 39.7185C21.7361 39.9574 21.1421 40.029 20.5701 39.9096C19.9981 39.7902 19.4921 39.4797 19.0741 39.0498C18.6561 38.596 18.3921 38.0467 18.2821 37.4257C18.1721 36.8047 18.2381 36.1838 18.4581 35.5867C18.6781 35.0135 19.0521 34.5119 19.5361 34.1775C20.0201 33.8193 20.5701 33.6521 21.1641 33.6521H24.0681V25.2212H21.1641C19.0521 25.2212 16.9841 25.8899 15.2241 27.1796C13.4641 28.4455 12.1001 30.2606 11.2861 32.3863C10.4721 34.5119 10.2741 36.8286 10.6701 39.0737C11.0881 41.3187 12.1001 43.3966 13.5961 44.9968C15.0921 46.6209 16.9841 47.7196 19.0521 48.1733C21.1201 48.6271 23.2761 48.3883 25.2121 47.5046C27.1701 46.6209 28.8201 45.1401 30.0081 43.2294C31.1741 41.3187 31.8121 39.0737 31.8121 36.7809V33.6043H24.0461V36.7809Z" fill="white"/>
<path d="M34.7159 20.97H43.4499V12.5391H34.7159C31.8779 12.5391 29.1719 13.7571 27.1699 15.9305C25.1679 18.1039 24.0459 21.0416 24.0459 24.1226V25.1735H31.8119V24.1226C31.8119 23.2867 32.1199 22.4746 32.6699 21.8776C33.2199 21.2805 33.9679 20.9461 34.7379 20.9461L34.7159 20.97Z" fill="white"/>
<path d="M24.0459 33.6043H31.8119V25.1973H24.0459V33.6043Z" fill="#00EF8B"/>
</g>
<defs>
<clipPath id="clip0_123_63">
<rect width="55" height="59.709" fill="white"/>
</clipPath>
</defs>
</svg>
