<svg width="22" height="22" viewBox="0 0 22 22" fill="none" xmlns="http://www.w3.org/2000/svg">
<path d="M15.1316 1.94336H6.84281C4.16822 1.94336 2 4.12614 2 6.8187V15.1631C2 17.8557 4.16822 20.0385 6.84281 20.0385H15.1316C17.8062 20.0385 19.9744 17.8557 19.9744 15.1631V6.8187C19.9744 4.12614 17.8062 1.94336 15.1316 1.94336Z" stroke="#53D3E0" stroke-width="2.78847" stroke-miterlimit="10"/>
<path d="M10.9872 15.3587C13.3834 15.3587 15.3259 13.4031 15.3259 10.9909C15.3259 8.57858 13.3834 6.62305 10.9872 6.62305C8.59104 6.62305 6.64856 8.57858 6.64856 10.9909C6.64856 13.4031 8.59104 15.3587 10.9872 15.3587Z" stroke="#53D3E0" stroke-width="2.78847" stroke-miterlimit="10"/>
<path d="M16.2555 6.6229C16.769 6.6229 17.1852 6.20386 17.1852 5.68694C17.1852 5.17002 16.769 4.75098 16.2555 4.75098C15.7421 4.75098 15.3258 5.17002 15.3258 5.68694C15.3258 6.20386 15.7421 6.6229 16.2555 6.6229Z" fill="#53D3E0"/>
</svg>
