<svg width="19" height="18" viewBox="0 0 19 18" fill="none" xmlns="http://www.w3.org/2000/svg">
<path d="M7.17151 5.62988H10.724V7.50496H10.7754C11.2697 6.59122 12.4791 5.62988 14.2829 5.62988C18.0332 5.62988 18.7265 8.03389 18.7265 11.1612V17.5309H15.0225V11.8845C15.0225 10.5384 14.9955 8.80481 13.0966 8.80481C11.1682 8.80481 10.873 10.2713 10.873 11.7867V17.5309H7.17151V5.62988Z" fill="#53D3E0"/>
<path d="M0.752075 5.62988H4.60373V17.5309H0.752075V5.62988Z" fill="#53D3E0"/>
<path d="M4.60373 2.32384C4.60373 3.41873 3.74096 4.30734 2.6779 4.30734C1.61485 4.30734 0.752075 3.41873 0.752075 2.32384C0.752075 1.22894 1.61485 0.340332 2.6779 0.340332C3.74096 0.340332 4.60373 1.22894 4.60373 2.32384Z" fill="#53D3E0"/>
</svg>
