<svg width="25" height="24" viewBox="0 0 25 24" fill="none" xmlns="http://www.w3.org/2000/svg">
<g clip-path="url(#clip0_365_521)">
<path d="M24.4206 0L13.6934 7.9374L15.6882 3.25967L24.4206 0Z" fill="#E17726"/>
<path d="M0.604785 0.00939941L9.31387 3.26028L11.208 7.99934L0.604785 0.00939941ZM20.1037 16.8807L24.845 16.9709L23.188 22.6L17.4025 21.0072L20.1037 16.8807ZM4.89658 16.8807L7.58769 21.0072L1.81201 22.6001L0.165039 16.9709L4.89658 16.8807Z" fill="#E27625"/>
<path d="M10.9504 6.79218L11.1441 13.0503L5.34619 12.7865L6.99541 10.2984L7.01631 10.2745L10.9504 6.79218ZM13.9897 6.72235L17.9839 10.2747L18.0046 10.2985L19.6538 12.7866L13.8571 13.0503L13.9897 6.72235ZM7.75742 16.8988L10.9232 19.3655L7.2457 21.141L7.75742 16.8988ZM17.2434 16.8984L17.7444 21.1411L14.0771 19.3653L17.2434 16.8984Z" fill="#E27625"/>
<path d="M14.1579 19.133L17.8793 20.9349L14.4177 22.5801L14.4536 21.4928L14.1579 19.133ZM10.8408 19.1338L10.5567 21.475L10.5801 22.5788L7.11035 20.9349L10.8408 19.1338Z" fill="#D5BFB2"/>
<path d="M9.76611 13.8671L10.7386 15.9108L7.42773 14.9409L9.76611 13.8671ZM15.2334 13.8673L17.5828 14.9409L14.2611 15.9105L15.2334 13.8673Z" fill="#233447"/>
<path d="M8.01055 16.8779L7.47539 21.2764L4.60693 16.9741L8.01055 16.8779ZM16.99 16.878L20.3937 16.9741L17.5146 21.2766L16.99 16.878ZM19.7377 12.5378L17.2606 15.0623L15.3508 14.1895L14.4364 16.1118L13.837 12.8062L19.7377 12.5378ZM5.26143 12.5378L11.1633 12.8062L10.5638 16.1118L9.64922 14.1898L7.74951 15.0624L5.26143 12.5378Z" fill="#CC6228"/>
<path d="M5.09424 12.0197L7.89678 14.8636L7.99385 17.6711L5.09424 12.0197ZM19.9084 12.0146L17.0035 17.6761L17.1129 14.8636L19.9084 12.0146ZM11.026 12.193L11.1388 12.9029L11.4175 14.6716L11.2383 20.1037L10.3911 15.7399L10.3908 15.6948L11.026 12.193ZM13.9724 12.1831L14.6092 15.6948L14.6089 15.7399L13.7596 20.1146L13.726 19.0204L13.5935 14.6394L13.9724 12.1831Z" fill="#E27525"/>
<path d="M17.3619 14.7506L17.2671 17.1899L14.3106 19.4933L13.713 19.071L14.3829 15.6203L17.3619 14.7506ZM7.64795 14.7506L10.6166 15.6203L11.2865 19.071L10.6889 19.4933L7.73232 17.1897L7.64795 14.7506Z" fill="#F5841F"/>
<path d="M6.54492 20.3963L10.3273 22.1885L10.3113 21.4232L10.6278 21.1453H14.3714L14.6993 21.4222L14.6751 22.1869L18.4336 20.4008L16.6047 21.9121L14.3933 23.431H10.5975L8.3875 21.9059L6.54492 20.3963Z" fill="#C0AC9D"/>
<path d="M13.8873 18.8944L14.4221 19.2722L14.7355 21.7726L14.2819 21.3897H10.7198L10.2749 21.7803L10.578 19.2724L11.113 18.8944H13.8873Z" fill="#161616"/>
<path d="M23.7123 0.219727L25 4.08271L24.1958 7.98867L24.7685 8.43037L23.9936 9.02158L24.576 9.47139L23.8048 10.1736L24.2782 10.5165L23.0218 11.9839L17.8685 10.4834L17.8238 10.4595L14.1103 7.32686L23.7123 0.219727ZM1.2877 0.219727L10.8898 7.32686L7.17617 10.4595L7.13154 10.4834L1.97822 11.9839L0.721777 10.5165L1.19482 10.1739L0.424121 9.47139L1.00537 9.02207L0.218848 8.4292L0.813086 7.98721L0 4.08291L1.2877 0.219727Z" fill="#763E1A"/>
<path d="M17.6163 10.1553L23.0766 11.745L24.8505 17.2124H20.1704L16.9458 17.253L19.2909 12.6819L17.6163 10.1553ZM7.3835 10.1553L5.70859 12.6819L8.054 17.253L4.83086 17.2124H0.15918L1.92314 11.7451L7.3835 10.1553ZM15.9554 3.23358L14.4281 7.35848L14.104 12.9307L13.98 14.6773L13.9701 19.139H11.0296L11.02 14.6857L10.8956 12.9293L10.5714 7.35848L9.04434 3.23358H15.9554Z" fill="#F5841F"/>
</g>
<defs>
<clipPath id="clip0_365_521">
<rect width="25" height="23.4375" fill="white"/>
</clipPath>
</defs>
</svg>
