<svg width="1296" height="318" viewBox="0 0 1296 318" fill="none" xmlns="http://www.w3.org/2000/svg">
<rect width="1296" height="318" rx="20" fill="#340269"/>
<mask id="mask0_1123_531" style="mask-type:alpha" maskUnits="userSpaceOnUse" x="0" y="0" width="1296" height="318">
<rect width="1296" height="318" rx="20" fill="#2563EB"/>
</mask>
<g mask="url(#mask0_1123_531)">
<path opacity="0.2" d="M128.118 -83.7155C155.231 -33.1709 127.276 35.8889 63.6341 70.028C-0.00821607 104.167 -73.0048 89.2599 -100.118 38.7153C-127.231 -11.8293 -99.2764 -80.8891 -35.6341 -115.028C28.0083 -149.167 101.005 -134.26 128.118 -83.7155Z" fill="#2B93CC" stroke="#F1F5F9" stroke-width="7"/>
<path d="M1420.5 359.5C1420.5 420.199 1360.5 470.5 1285 470.5C1209.5 470.5 1149.5 420.199 1149.5 359.5C1149.5 298.801 1209.5 248.5 1285 248.5C1360.5 248.5 1420.5 298.801 1420.5 359.5Z" fill="#9747FF" stroke="white" stroke-width="7"/>
</g>
<g clip-path="url(#clip0_1123_531)">
<path d="M1064.12 68H957.875C931.987 68 911 88.9867 911 114.875V221.125C911 247.013 931.987 268 957.875 268H1064.12C1090.01 268 1111 247.013 1111 221.125V114.875C1111 88.9867 1090.01 68 1064.12 68Z" fill="#5865F2"/>
<mask id="mask1_1123_531" style="mask-type:luminance" maskUnits="userSpaceOnUse" x="932" y="107" width="158" height="122">
<path d="M932.875 107.844H1089.12V228.883H932.875V107.844Z" fill="white"/>
</mask>
<g mask="url(#mask1_1123_531)">
<path d="M1065.15 118.622C1055.02 113.972 1044.33 110.656 1033.34 108.758C1033.24 108.739 1033.14 108.753 1033.05 108.796C1032.96 108.84 1032.88 108.911 1032.83 109C1031.46 111.442 1029.94 114.629 1028.87 117.134C1016.86 115.336 1004.91 115.336 993.151 117.134C992.085 114.573 990.509 111.442 989.129 109C989.078 108.913 989.002 108.843 988.91 108.8C988.819 108.757 988.717 108.742 988.617 108.758C977.633 110.652 966.942 113.969 956.813 118.622C956.727 118.659 956.653 118.722 956.604 118.802C936.348 149.065 930.799 178.583 933.521 207.736C933.529 207.808 933.551 207.877 933.585 207.94C933.62 208.003 933.668 208.058 933.724 208.102C947.088 217.917 960.034 223.876 972.74 227.825C972.839 227.854 972.944 227.853 973.042 227.821C973.14 227.789 973.226 227.727 973.288 227.645C976.294 223.54 978.973 219.213 981.27 214.662C981.302 214.6 981.32 214.532 981.323 214.462C981.327 214.392 981.315 214.322 981.289 214.257C981.264 214.192 981.225 214.133 981.175 214.084C981.125 214.036 981.065 213.998 980.999 213.974C976.749 212.361 972.703 210.397 968.811 208.165C968.74 208.123 968.681 208.064 968.638 207.994C968.595 207.924 968.57 207.844 968.565 207.762C968.56 207.68 968.575 207.598 968.61 207.523C968.644 207.448 968.696 207.383 968.762 207.333C969.583 206.72 970.39 206.087 971.182 205.436C971.251 205.379 971.335 205.342 971.425 205.33C971.514 205.318 971.605 205.331 971.687 205.368C997.259 217.043 1024.94 217.043 1050.21 205.368C1050.29 205.329 1050.39 205.314 1050.48 205.325C1050.57 205.336 1050.65 205.372 1050.72 205.43C1051.52 206.085 1052.33 206.719 1053.15 207.333C1053.22 207.383 1053.27 207.447 1053.3 207.522C1053.34 207.596 1053.35 207.678 1053.35 207.76C1053.35 207.843 1053.32 207.922 1053.28 207.993C1053.24 208.063 1053.18 208.122 1053.11 208.165C1049.21 210.438 1045.13 212.38 1040.91 213.968C1040.85 213.993 1040.79 214.031 1040.74 214.081C1040.69 214.131 1040.65 214.19 1040.62 214.256C1040.6 214.321 1040.59 214.391 1040.59 214.461C1040.6 214.532 1040.62 214.6 1040.65 214.662C1042.99 219.177 1045.65 223.514 1048.62 227.639C1048.68 227.723 1048.77 227.787 1048.87 227.82C1048.97 227.853 1049.07 227.855 1049.17 227.825C1061.94 223.876 1074.88 217.917 1088.25 208.102C1088.31 208.06 1088.35 208.006 1088.39 207.944C1088.42 207.882 1088.45 207.814 1088.45 207.743C1091.71 174.039 1083 144.761 1065.35 118.808C1065.31 118.724 1065.23 118.658 1065.15 118.622ZM985.089 189.986C977.39 189.986 971.046 182.918 971.046 174.237C971.046 165.557 977.267 158.489 985.089 158.489C992.972 158.489 999.254 165.619 999.13 174.237C999.13 182.918 992.911 189.986 985.089 189.986ZM1037.01 189.986C1029.31 189.986 1022.97 182.918 1022.97 174.237C1022.97 165.557 1029.19 158.489 1037.01 158.489C1044.89 158.489 1051.17 165.619 1051.05 174.237C1051.05 182.918 1044.89 189.986 1037.01 189.986Z" fill="white"/>
</g>
</g>
<defs>
<clipPath id="clip0_1123_531">
<rect width="200" height="200" fill="white" transform="translate(911 68)"/>
</clipPath>
</defs>
</svg>
