<svg width="225" height="282" viewBox="0 0 225 282" fill="none" xmlns="http://www.w3.org/2000/svg">
<rect width="225" height="281.25" rx="10" fill="black"/>
<rect x="34" y="47" width="146" height="24" fill="#2BB5F6"/>
<rect x="34" y="102" width="146" height="24" fill="#00CC77"/>
<rect x="34" y="159" width="146" height="24" fill="#F7931A"/>
<rect x="34" y="216" width="146" height="24" fill="#E33629"/>
<path d="M61.56 53.5H68.13V58H55.68V36.85H61.56V53.5ZM86.7963 49.39C86.7963 49.85 86.7663 50.31 86.7063 50.77H75.5763C75.6363 51.69 75.8863 52.38 76.3263 52.84C76.7863 53.28 77.3663 53.5 78.0663 53.5C79.0463 53.5 79.7463 53.06 80.1663 52.18H86.4363C86.1763 53.34 85.6663 54.38 84.9063 55.3C84.1663 56.2 83.2263 56.91 82.0863 57.43C80.9463 57.95 79.6863 58.21 78.3063 58.21C76.6463 58.21 75.1663 57.86 73.8663 57.16C72.5863 56.46 71.5763 55.46 70.8363 54.16C70.1163 52.86 69.7563 51.33 69.7563 49.57C69.7563 47.81 70.1163 46.29 70.8363 45.01C71.5563 43.71 72.5563 42.71 73.8363 42.01C75.1363 41.31 76.6263 40.96 78.3063 40.96C79.9663 40.96 81.4363 41.3 82.7163 41.98C83.9963 42.66 84.9963 43.64 85.7163 44.92C86.4363 46.18 86.7963 47.67 86.7963 49.39ZM80.7963 47.92C80.7963 47.2 80.5563 46.64 80.0763 46.24C79.5963 45.82 78.9963 45.61 78.2763 45.61C77.5563 45.61 76.9663 45.81 76.5063 46.21C76.0463 46.59 75.7463 47.16 75.6063 47.92H80.7963ZM88.5427 49.57C88.5427 47.83 88.8527 46.31 89.4727 45.01C90.1127 43.71 90.9727 42.71 92.0527 42.01C93.1527 41.31 94.3727 40.96 95.7127 40.96C96.8727 40.96 97.8727 41.19 98.7127 41.65C99.5527 42.11 100.203 42.73 100.663 43.51V41.17H106.543V58H100.663V55.66C100.203 56.44 99.5427 57.06 98.6827 57.52C97.8427 57.98 96.8527 58.21 95.7127 58.21C94.3727 58.21 93.1527 57.86 92.0527 57.16C90.9727 56.46 90.1127 55.46 89.4727 54.16C88.8527 52.84 88.5427 51.31 88.5427 49.57ZM100.663 49.57C100.663 48.49 100.363 47.64 99.7627 47.02C99.1827 46.4 98.4627 46.09 97.6027 46.09C96.7227 46.09 95.9927 46.4 95.4127 47.02C94.8327 47.62 94.5427 48.47 94.5427 49.57C94.5427 50.65 94.8327 51.51 95.4127 52.15C95.9927 52.77 96.7227 53.08 97.6027 53.08C98.4627 53.08 99.1827 52.77 99.7627 52.15C100.363 51.53 100.663 50.67 100.663 49.57ZM116.073 44.14C116.733 43.18 117.533 42.42 118.473 41.86C119.413 41.3 120.423 41.02 121.503 41.02V47.29H119.853C118.573 47.29 117.623 47.54 117.003 48.04C116.383 48.54 116.073 49.41 116.073 50.65V58H110.193V41.17H116.073V44.14ZM134.921 41.02C136.861 41.02 138.401 41.67 139.541 42.97C140.681 44.25 141.251 45.99 141.251 48.19V58H135.371V48.97C135.371 48.01 135.121 47.26 134.621 46.72C134.121 46.16 133.451 45.88 132.611 45.88C131.731 45.88 131.041 46.16 130.541 46.72C130.041 47.26 129.791 48.01 129.791 48.97V58H123.911V41.17H129.791V43.57C130.311 42.81 131.011 42.2 131.891 41.74C132.771 41.26 133.781 41.02 134.921 41.02ZM147.628 58.24C146.588 58.24 145.748 57.96 145.108 57.4C144.488 56.82 144.178 56.09 144.178 55.21C144.178 54.33 144.488 53.6 145.108 53.02C145.748 52.44 146.588 52.15 147.628 52.15C148.648 52.15 149.468 52.44 150.088 53.02C150.728 53.6 151.048 54.33 151.048 55.21C151.048 56.07 150.728 56.79 150.088 57.37C149.468 57.95 148.648 58.24 147.628 58.24Z" fill="#FBFBFB"/>
<path d="M54.96 103.38C54.96 101.3 55.39 99.45 56.25 97.83C57.13 96.19 58.37 94.92 59.97 94.02C61.57 93.1 63.41 92.64 65.49 92.64C68.13 92.64 70.35 93.35 72.15 94.77C73.95 96.17 75.11 98.08 75.63 100.5H69.3C68.92 99.7 68.39 99.09 67.71 98.67C67.05 98.25 66.28 98.04 65.4 98.04C64.04 98.04 62.95 98.53 62.13 99.51C61.33 100.47 60.93 101.76 60.93 103.38C60.93 105.02 61.33 106.33 62.13 107.31C62.95 108.27 64.04 108.75 65.4 108.75C66.28 108.75 67.05 108.54 67.71 108.12C68.39 107.7 68.92 107.09 69.3 106.29H75.63C75.11 108.71 73.95 110.63 72.15 112.05C70.35 113.45 68.13 114.15 65.49 114.15C63.41 114.15 61.57 113.7 59.97 112.8C58.37 111.88 57.13 110.61 56.25 108.99C55.39 107.35 54.96 105.48 54.96 103.38ZM86.5444 114.21C84.8644 114.21 83.3544 113.86 82.0144 113.16C80.6944 112.46 79.6544 111.46 78.8944 110.16C78.1344 108.86 77.7544 107.33 77.7544 105.57C77.7544 103.83 78.1344 102.31 78.8944 101.01C79.6744 99.71 80.7244 98.71 82.0444 98.01C83.3844 97.31 84.8944 96.96 86.5744 96.96C88.2544 96.96 89.7544 97.31 91.0744 98.01C92.4144 98.71 93.4644 99.71 94.2244 101.01C95.0044 102.31 95.3944 103.83 95.3944 105.57C95.3944 107.31 95.0044 108.84 94.2244 110.16C93.4644 111.46 92.4144 112.46 91.0744 113.16C89.7344 113.86 88.2244 114.21 86.5444 114.21ZM86.5444 109.11C87.3644 109.11 88.0444 108.81 88.5844 108.21C89.1444 107.59 89.4244 106.71 89.4244 105.57C89.4244 104.43 89.1444 103.56 88.5844 102.96C88.0444 102.36 87.3744 102.06 86.5744 102.06C85.7744 102.06 85.1044 102.36 84.5644 102.96C84.0244 103.56 83.7544 104.43 83.7544 105.57C83.7544 106.73 84.0144 107.61 84.5344 108.21C85.0544 108.81 85.7244 109.11 86.5444 109.11ZM97.1266 105.57C97.1266 103.83 97.4366 102.31 98.0566 101.01C98.6966 99.71 99.5666 98.71 100.667 98.01C101.767 97.31 102.987 96.96 104.327 96.96C105.407 96.96 106.367 97.19 107.207 97.65C108.067 98.09 108.737 98.7 109.217 99.48V91.8H115.127V114H109.217V111.66C108.757 112.44 108.107 113.06 107.267 113.52C106.427 113.98 105.437 114.21 104.297 114.21C102.957 114.21 101.737 113.86 100.637 113.16C99.5566 112.46 98.6966 111.46 98.0566 110.16C97.4366 108.84 97.1266 107.31 97.1266 105.57ZM109.247 105.57C109.247 104.49 108.947 103.64 108.347 103.02C107.767 102.4 107.047 102.09 106.187 102.09C105.307 102.09 104.577 102.4 103.997 103.02C103.417 103.62 103.127 104.47 103.127 105.57C103.127 106.65 103.417 107.51 103.997 108.15C104.577 108.77 105.307 109.08 106.187 109.08C107.047 109.08 107.767 108.77 108.347 108.15C108.947 107.53 109.247 106.67 109.247 105.57ZM134.857 105.39C134.857 105.85 134.827 106.31 134.767 106.77H123.637C123.697 107.69 123.947 108.38 124.387 108.84C124.847 109.28 125.427 109.5 126.127 109.5C127.107 109.5 127.807 109.06 128.227 108.18H134.497C134.237 109.34 133.727 110.38 132.967 111.3C132.227 112.2 131.287 112.91 130.147 113.43C129.007 113.95 127.747 114.21 126.367 114.21C124.707 114.21 123.227 113.86 121.927 113.16C120.647 112.46 119.637 111.46 118.897 110.16C118.177 108.86 117.817 107.33 117.817 105.57C117.817 103.81 118.177 102.29 118.897 101.01C119.617 99.71 120.617 98.71 121.897 98.01C123.197 97.31 124.687 96.96 126.367 96.96C128.027 96.96 129.497 97.3 130.777 97.98C132.057 98.66 133.057 99.64 133.777 100.92C134.497 102.18 134.857 103.67 134.857 105.39ZM128.857 103.92C128.857 103.2 128.617 102.64 128.137 102.24C127.657 101.82 127.057 101.61 126.337 101.61C125.617 101.61 125.027 101.81 124.567 102.21C124.107 102.59 123.807 103.16 123.667 103.92H128.857ZM140.414 114.24C139.374 114.24 138.534 113.96 137.894 113.4C137.274 112.82 136.964 112.09 136.964 111.21C136.964 110.33 137.274 109.6 137.894 109.02C138.534 108.44 139.374 108.15 140.414 108.15C141.434 108.15 142.254 108.44 142.874 109.02C143.514 109.6 143.834 110.33 143.834 111.21C143.834 112.07 143.514 112.79 142.874 113.37C142.254 113.95 141.434 114.24 140.414 114.24Z" fill="#FBFBFB"/>
<path d="M72.39 155.9C72.39 157.18 72.09 158.35 71.49 159.41C70.91 160.45 70.02 161.29 68.82 161.93C67.64 162.55 66.19 162.86 64.47 162.86H61.56V170H55.68V148.85H64.47C66.17 148.85 67.61 149.15 68.79 149.75C69.99 150.35 70.89 151.18 71.49 152.24C72.09 153.3 72.39 154.52 72.39 155.9ZM63.9 158.18C65.56 158.18 66.39 157.42 66.39 155.9C66.39 154.36 65.56 153.59 63.9 153.59H61.56V158.18H63.9ZM80.9323 147.8V170H75.0523V147.8H80.9323ZM83.6208 161.57C83.6208 159.83 83.9308 158.31 84.5508 157.01C85.1908 155.71 86.0508 154.71 87.1308 154.01C88.2308 153.31 89.4508 152.96 90.7908 152.96C91.9508 152.96 92.9508 153.19 93.7908 153.65C94.6308 154.11 95.2808 154.73 95.7408 155.51V153.17H101.621V170H95.7408V167.66C95.2808 168.44 94.6208 169.06 93.7608 169.52C92.9208 169.98 91.9308 170.21 90.7908 170.21C89.4508 170.21 88.2308 169.86 87.1308 169.16C86.0508 168.46 85.1908 167.46 84.5508 166.16C83.9308 164.84 83.6208 163.31 83.6208 161.57ZM95.7408 161.57C95.7408 160.49 95.4408 159.64 94.8408 159.02C94.2608 158.4 93.5408 158.09 92.6808 158.09C91.8008 158.09 91.0708 158.4 90.4908 159.02C89.9108 159.62 89.6208 160.47 89.6208 161.57C89.6208 162.65 89.9108 163.51 90.4908 164.15C91.0708 164.77 91.8008 165.08 92.6808 165.08C93.5408 165.08 94.2608 164.77 94.8408 164.15C95.4408 163.53 95.7408 162.67 95.7408 161.57ZM123.391 153.17L112.711 178.01H106.321L110.341 169.28L103.441 153.17H109.981L113.521 162.71L116.941 153.17H123.391ZM128.08 170.24C127.04 170.24 126.2 169.96 125.56 169.4C124.94 168.82 124.63 168.09 124.63 167.21C124.63 166.33 124.94 165.6 125.56 165.02C126.2 164.44 127.04 164.15 128.08 164.15C129.1 164.15 129.92 164.44 130.54 165.02C131.18 165.6 131.5 166.33 131.5 167.21C131.5 168.07 131.18 168.79 130.54 169.37C129.92 169.95 129.1 170.24 128.08 170.24Z" fill="#FBFBFB"/>
<path d="M66.39 226L62.19 218.2H61.56V226H55.68V204.85H64.95C66.65 204.85 68.09 205.15 69.27 205.75C70.45 206.33 71.34 207.14 71.94 208.18C72.54 209.2 72.84 210.35 72.84 211.63C72.84 213.07 72.44 214.34 71.64 215.44C70.86 216.52 69.71 217.29 68.19 217.75L72.96 226H66.39ZM61.56 214.18H64.47C65.27 214.18 65.87 213.99 66.27 213.61C66.67 213.23 66.87 212.68 66.87 211.96C66.87 211.28 66.66 210.75 66.24 210.37C65.84 209.97 65.25 209.77 64.47 209.77H61.56V214.18ZM91.894 217.39C91.894 217.85 91.864 218.31 91.804 218.77H80.674C80.734 219.69 80.984 220.38 81.424 220.84C81.884 221.28 82.464 221.5 83.164 221.5C84.144 221.5 84.844 221.06 85.264 220.18H91.534C91.274 221.34 90.764 222.38 90.004 223.3C89.264 224.2 88.324 224.91 87.184 225.43C86.044 225.95 84.784 226.21 83.404 226.21C81.744 226.21 80.264 225.86 78.964 225.16C77.684 224.46 76.674 223.46 75.934 222.16C75.214 220.86 74.854 219.33 74.854 217.57C74.854 215.81 75.214 214.29 75.934 213.01C76.654 211.71 77.654 210.71 78.934 210.01C80.234 209.31 81.724 208.96 83.404 208.96C85.064 208.96 86.534 209.3 87.814 209.98C89.094 210.66 90.094 211.64 90.814 212.92C91.534 214.18 91.894 215.67 91.894 217.39ZM85.894 215.92C85.894 215.2 85.654 214.64 85.174 214.24C84.694 213.82 84.094 213.61 83.374 213.61C82.654 213.61 82.064 213.81 81.604 214.21C81.144 214.59 80.844 215.16 80.704 215.92H85.894ZM100.48 211.51C100.94 210.73 101.59 210.11 102.43 209.65C103.27 209.19 104.26 208.96 105.4 208.96C106.74 208.96 107.95 209.31 109.03 210.01C110.13 210.71 110.99 211.71 111.61 213.01C112.25 214.31 112.57 215.83 112.57 217.57C112.57 219.31 112.25 220.84 111.61 222.16C110.99 223.46 110.13 224.46 109.03 225.16C107.95 225.86 106.74 226.21 105.4 226.21C104.26 226.21 103.27 225.98 102.43 225.52C101.61 225.06 100.96 224.44 100.48 223.66V234.04H94.6003V209.17H100.48V211.51ZM106.6 217.57C106.6 216.47 106.3 215.62 105.7 215.02C105.12 214.4 104.4 214.09 103.54 214.09C102.68 214.09 101.95 214.4 101.35 215.02C100.77 215.64 100.48 216.49 100.48 217.57C100.48 218.67 100.77 219.53 101.35 220.15C101.95 220.77 102.68 221.08 103.54 221.08C104.4 221.08 105.12 220.77 105.7 220.15C106.3 219.51 106.6 218.65 106.6 217.57ZM131.371 217.39C131.371 217.85 131.341 218.31 131.281 218.77H120.151C120.211 219.69 120.461 220.38 120.901 220.84C121.361 221.28 121.941 221.5 122.641 221.5C123.621 221.5 124.321 221.06 124.741 220.18H131.011C130.751 221.34 130.241 222.38 129.481 223.3C128.741 224.2 127.801 224.91 126.661 225.43C125.521 225.95 124.261 226.21 122.881 226.21C121.221 226.21 119.741 225.86 118.441 225.16C117.161 224.46 116.151 223.46 115.411 222.16C114.691 220.86 114.331 219.33 114.331 217.57C114.331 215.81 114.691 214.29 115.411 213.01C116.131 211.71 117.131 210.71 118.411 210.01C119.711 209.31 121.201 208.96 122.881 208.96C124.541 208.96 126.011 209.3 127.291 209.98C128.571 210.66 129.571 211.64 130.291 212.92C131.011 214.18 131.371 215.67 131.371 217.39ZM125.371 215.92C125.371 215.2 125.131 214.64 124.651 214.24C124.171 213.82 123.571 213.61 122.851 213.61C122.131 213.61 121.541 213.81 121.081 214.21C120.621 214.59 120.321 215.16 120.181 215.92H125.371ZM133.117 217.57C133.117 215.83 133.427 214.31 134.047 213.01C134.687 211.71 135.547 210.71 136.627 210.01C137.727 209.31 138.947 208.96 140.287 208.96C141.447 208.96 142.447 209.19 143.287 209.65C144.127 210.11 144.777 210.73 145.237 211.51V209.17H151.117V226H145.237V223.66C144.777 224.44 144.117 225.06 143.257 225.52C142.417 225.98 141.427 226.21 140.287 226.21C138.947 226.21 137.727 225.86 136.627 225.16C135.547 224.46 134.687 223.46 134.047 222.16C133.427 220.84 133.117 219.31 133.117 217.57ZM145.237 217.57C145.237 216.49 144.937 215.64 144.337 215.02C143.757 214.4 143.037 214.09 142.177 214.09C141.297 214.09 140.567 214.4 139.987 215.02C139.407 215.62 139.117 216.47 139.117 217.57C139.117 218.65 139.407 219.51 139.987 220.15C140.567 220.77 141.297 221.08 142.177 221.08C143.037 221.08 143.757 220.77 144.337 220.15C144.937 219.53 145.237 218.67 145.237 217.57ZM164.698 220.99V226H162.148C157.848 226 155.698 223.87 155.698 219.61V214.06H153.628V209.17H155.698V205.09H161.608V209.17H164.668V214.06H161.608V219.7C161.608 220.16 161.708 220.49 161.908 220.69C162.128 220.89 162.488 220.99 162.988 220.99H164.698ZM170.545 226.24C169.505 226.24 168.665 225.96 168.025 225.4C167.405 224.82 167.095 224.09 167.095 223.21C167.095 222.33 167.405 221.6 168.025 221.02C168.665 220.44 169.505 220.15 170.545 220.15C171.565 220.15 172.385 220.44 173.005 221.02C173.645 221.6 173.965 222.33 173.965 223.21C173.965 224.07 173.645 224.79 173.005 225.37C172.385 225.95 171.565 226.24 170.545 226.24Z" fill="#FBFBFB"/>
</svg>
