<svg width="21" height="18" viewBox="0 0 21 18" fill="none" xmlns="http://www.w3.org/2000/svg">
<path d="M18.9485 1.98769C18.9485 1.98769 18 2.75777 16.669 2.89638C16.669 2.89638 14.573 0.539911 11.5744 2.58836C10.2281 3.54326 10.1057 5.56092 10.3352 6.28479C10.3352 6.28479 6.26564 6.60823 2.71626 2.41895C2.71626 2.41895 1.12517 5.19127 3.75658 7.40913C3.75658 7.40913 2.97883 7.53233 2.23952 6.91629C2.23952 6.91629 1.89008 9.78102 5.07228 10.5819C5.07228 10.5819 4.85811 10.9516 3.57299 10.5819C3.57299 10.5819 3.78717 12.923 6.81637 13.2618C6.81637 13.2618 5.1799 14.956 1.50024 14.7404C1.50024 14.7404 7.58135 19.3301 14.1599 13.7855C17.8317 10.6435 17.7093 6.11542 17.6481 5.43775C17.6481 5.43775 19.0981 4.32882 19.4746 3.62033C19.4746 3.62033 18.3518 3.98997 17.4339 3.98997C17.4339 3.9899 18.6578 3.34302 18.9485 1.98769Z" stroke="#53D3E0" stroke-width="2.69725" stroke-miterlimit="10" stroke-linecap="round" stroke-linejoin="round"/>
</svg>
