<svg width="22" height="16" viewBox="0 0 22 16" fill="none" xmlns="http://www.w3.org/2000/svg">
<path d="M19.615 3.2823C19.4032 2.4481 18.7789 1.7912 17.9862 1.56826C16.5495 1.16309 10.7882 1.16309 10.7882 1.16309C10.7882 1.16309 5.02691 1.16309 3.59012 1.56826C2.79745 1.7912 2.17314 2.4481 1.96128 3.2823C1.57629 4.79422 1.57629 7.94876 1.57629 7.94876C1.57629 7.94876 1.57629 11.1033 1.96128 12.6153C2.17314 13.4494 2.79745 14.1063 3.59012 14.3294C5.02691 14.7344 10.7882 14.7344 10.7882 14.7344C10.7882 14.7344 16.5495 14.7344 17.9862 14.3294C18.7789 14.1063 19.4032 13.4494 19.615 12.6153C20 11.1033 20 7.94876 20 7.94876C20 7.94876 20 4.79422 19.615 3.2823Z" stroke="#53D3E0" stroke-width="2.26951" stroke-miterlimit="10"/>
<path d="M8.90393 10.8126L13.7192 7.94868L8.90393 5.08447V10.8126Z" stroke="#53D3E0" stroke-width="2.26951" stroke-miterlimit="10" stroke-linecap="round" stroke-linejoin="round"/>
</svg>
