<svg width="20" height="20" viewBox="0 0 20 20" fill="none" xmlns="http://www.w3.org/2000/svg">
<path fill-rule="evenodd" clip-rule="evenodd" d="M10.0003 3.33334C9.5583 3.33334 9.13438 3.50893 8.82181 3.82149C8.50925 4.13405 8.33366 4.55798 8.33366 5.00001H11.667C11.667 4.55798 11.4914 4.13405 11.1788 3.82149C10.8663 3.50893 10.4424 3.33334 10.0003 3.33334ZM13.2703 5.32C13.3124 5.21857 13.3339 5.10981 13.3337 5.00001C13.3337 4.11595 12.9825 3.2681 12.3573 2.64298C11.7322 2.01786 10.8844 1.66667 10.0003 1.66667C9.11627 1.66667 8.26842 2.01786 7.6433 2.64298C7.01818 3.2681 6.66699 4.11595 6.66699 5.00001C6.66699 5.11334 6.68949 5.22084 6.73033 5.32C6.08905 5.58819 5.5248 6.0121 5.08866 6.55334C4.58008 6.39429 4.13557 6.07701 3.81989 5.64772C3.50422 5.21842 3.33387 4.69954 3.33366 4.16667C3.33366 3.94566 3.24586 3.7337 3.08958 3.57742C2.9333 3.42114 2.72134 3.33334 2.50033 3.33334C2.27931 3.33334 2.06735 3.42114 1.91107 3.57742C1.75479 3.7337 1.66699 3.94566 1.66699 4.16667C1.6669 5.00551 1.91995 5.82486 2.39305 6.51756C2.86615 7.21025 3.53727 7.74406 4.31866 8.04917C4.21774 8.41309 4.16672 8.78902 4.16699 9.16667V10H2.50033C2.27931 10 2.06735 10.0878 1.91107 10.2441C1.75479 10.4004 1.66699 10.6123 1.66699 10.8333C1.66699 11.0544 1.75479 11.2663 1.91107 11.4226C2.06735 11.5789 2.27931 11.6667 2.50033 11.6667H4.16699V12.5C4.16699 12.8542 4.19866 13.2 4.25866 13.5367C3.49226 13.8496 2.83644 14.3837 2.37485 15.0709C1.91326 15.7581 1.66683 16.5672 1.66699 17.395C1.66699 17.616 1.75479 17.828 1.91107 17.9843C2.06735 18.1405 2.27931 18.2283 2.50033 18.2283C2.72134 18.2283 2.9333 18.1405 3.08958 17.9843C3.24586 17.828 3.33366 17.616 3.33366 17.395C3.33366 16.3883 3.92949 15.5192 4.78866 15.1233C5.27471 16.0887 6.0194 16.9 6.93965 17.4668C7.8599 18.0336 8.91952 18.3336 10.0003 18.3333C11.0811 18.3336 12.1408 18.0336 13.061 17.4668C13.9813 16.9 14.7259 16.0887 15.212 15.1233C15.6462 15.3234 16.0141 15.6436 16.2719 16.0462C16.5298 16.4488 16.6669 16.9169 16.667 17.395C16.667 17.616 16.7548 17.828 16.9111 17.9843C17.0673 18.1405 17.2793 18.2283 17.5003 18.2283C17.7213 18.2283 17.9333 18.1405 18.0896 17.9843C18.2459 17.828 18.3337 17.616 18.3337 17.395C18.3338 16.5672 18.0874 15.7581 17.6258 15.0709C17.1642 14.3837 16.5084 13.8496 15.742 13.5367C15.802 13.2 15.8337 12.8533 15.8337 12.5V11.6667H17.5003C17.7213 11.6667 17.9333 11.5789 18.0896 11.4226C18.2459 11.2663 18.3337 11.0544 18.3337 10.8333C18.3337 10.6123 18.2459 10.4004 18.0896 10.2441C17.9333 10.0878 17.7213 10 17.5003 10H15.8337V9.16667C15.8337 8.77917 15.7812 8.40501 15.682 8.04917C16.4634 7.74406 17.1345 7.21025 17.6076 6.51756C18.0807 5.82486 18.3337 5.00551 18.3337 4.16667C18.3337 3.94566 18.2459 3.7337 18.0896 3.57742C17.9333 3.42114 17.7213 3.33334 17.5003 3.33334C17.2793 3.33334 17.0673 3.42114 16.9111 3.57742C16.7548 3.7337 16.667 3.94566 16.667 4.16667C16.667 4.69958 16.4969 5.21857 16.1813 5.64802C15.8658 6.07747 15.4214 6.39494 14.9128 6.55417C14.4766 6.01252 13.912 5.58831 13.2703 5.32ZM14.167 9.16667C14.167 8.50363 13.9036 7.86775 13.4348 7.3989C12.9659 6.93006 12.33 6.66667 11.667 6.66667H10.8337V16.5833C11.7747 16.3909 12.6203 15.8795 13.2277 15.1355C13.8351 14.3914 14.1669 13.4605 14.167 12.5V9.16667ZM9.16699 16.5833V6.66667H8.33366C7.67062 6.66667 7.03473 6.93006 6.56589 7.3989C6.09705 7.86775 5.83366 8.50363 5.83366 9.16667V12.5C5.83378 13.4605 6.16557 14.3914 6.77295 15.1355C7.38032 15.8795 8.226 16.3909 9.16699 16.5833Z" fill="black"/>
</svg>
