<svg width="16" height="16" viewBox="0 0 16 16" fill="none" xmlns="http://www.w3.org/2000/svg">
<path fill-rule="evenodd" clip-rule="evenodd" d="M2.42676 7.31997C2.52476 7.31997 2.63476 7.30531 2.75676 7.27597C2.87876 7.24664 2.98876 7.19597 3.08676 7.12264C3.18476 7.04931 3.26742 6.94331 3.33609 6.80664C3.40476 6.66997 3.43876 6.49864 3.43876 6.29331V3.38931C3.43876 3.05664 3.49009 2.77064 3.59276 2.53131C3.69542 2.29131 3.83476 2.09131 4.01076 1.92997C4.18676 1.76864 4.38742 1.64864 4.61209 1.57064C4.83676 1.49264 5.07209 1.45331 5.31609 1.45331H6.38676V2.68531H5.58009C5.29676 2.68531 5.11809 2.77864 5.04476 2.96397C4.97142 3.14997 4.93476 3.35064 4.93476 3.56531V6.32264C4.93476 6.60597 4.88142 6.84797 4.77342 7.04931C4.66609 7.24931 4.53876 7.41264 4.39209 7.53998C4.24542 7.66664 4.08876 7.76464 3.92276 7.83331C3.75609 7.90197 3.61476 7.94064 3.49742 7.95064V7.97997C3.61476 7.98997 3.75676 8.02131 3.92276 8.07531C4.08942 8.12864 4.24542 8.21931 4.39209 8.34664C4.53876 8.47331 4.66542 8.64464 4.77342 8.85997C4.88076 9.07531 4.93476 9.35331 4.93476 9.69597V12.3653C4.93476 12.5806 4.97142 12.7806 5.04476 12.9666C5.11809 13.1526 5.29676 13.2453 5.58009 13.2453H6.38676V14.4773H5.31609C5.07142 14.4773 4.83676 14.438 4.61209 14.36C4.38906 14.2828 4.18435 14.1605 4.01076 14.0006C3.82997 13.8324 3.68742 13.6274 3.59276 13.3993C3.49009 13.1593 3.43876 12.874 3.43876 12.5413V9.73997C3.43876 9.50531 3.40476 9.31464 3.33609 9.16797C3.27877 9.03647 3.19372 8.9189 3.08676 8.82331C2.99176 8.74161 2.87862 8.68378 2.75676 8.65464C2.64885 8.62716 2.5381 8.6124 2.42676 8.61064V7.31997ZM13.5734 8.67998C13.4661 8.67998 13.3534 8.69464 13.2361 8.72398C13.1169 8.75428 13.0064 8.81204 12.9134 8.89264C12.8065 8.98823 12.7214 9.1058 12.6641 9.23731C12.5954 9.38397 12.5614 9.57464 12.5614 9.80931V12.6106C12.5614 12.9433 12.5101 13.2293 12.4074 13.4686C12.3048 13.7086 12.1654 13.9086 11.9894 14.07C11.8159 14.2301 11.6112 14.3526 11.3881 14.43C11.1634 14.5073 10.9281 14.5466 10.6841 14.5466H9.61342V13.3146H10.4201C10.7034 13.3146 10.8821 13.2213 10.9554 13.036C11.0288 12.85 11.0654 12.6493 11.0654 12.4346V9.76531C11.0654 9.42331 11.1188 9.14464 11.2268 8.92931C11.3341 8.71397 11.4614 8.54264 11.6081 8.41597C11.7548 8.28931 11.9114 8.19864 12.0774 8.14464C12.2441 8.09131 12.3854 8.05931 12.5028 8.04931V8.01997C12.3559 8.00229 12.2126 7.96274 12.0774 7.90264C11.9061 7.83098 11.7476 7.7319 11.6081 7.60931C11.4614 7.48264 11.3348 7.31864 11.2268 7.11797C11.1194 6.91797 11.0654 6.67531 11.0654 6.39197V3.63464C11.0654 3.41931 11.0288 3.21931 10.9554 3.03331C10.8821 2.84731 10.7034 2.75464 10.4201 2.75464H9.61342V1.52264H10.6841C10.9288 1.52264 11.1634 1.56197 11.3881 1.63997C11.6128 1.71797 11.8134 1.83797 11.9894 1.99931C12.1654 2.16064 12.3048 2.36131 12.4074 2.60064C12.5101 2.84064 12.5614 3.12597 12.5614 3.45864V6.36264C12.5614 6.56797 12.5954 6.73931 12.6641 6.87597C12.7328 7.01264 12.8154 7.11797 12.9134 7.19131C13.0114 7.26464 13.1188 7.31597 13.2361 7.34531C13.3534 7.37464 13.4661 7.38931 13.5734 7.38931V8.67998Z" fill="black"/>
</svg>
