<svg width="20" height="20" viewBox="0 0 20 20" fill="none" xmlns="http://www.w3.org/2000/svg">
<path d="M5.41667 11.25H14.5833V10.4167H5.41667V11.25ZM5.41667 8.75H14.5833V7.91667H5.41667V8.75ZM5.41667 6.25H14.5833V5.41667H5.41667V6.25ZM3.84583 14.1667C3.4625 14.1667 3.1425 14.0383 2.88583 13.7817C2.62861 13.5244 2.5 13.2042 2.5 12.8208V3.84583C2.5 3.4625 2.62861 3.1425 2.88583 2.88583C3.1425 2.62861 3.4625 2.5 3.84583 2.5H16.1542C16.5375 2.5 16.8575 2.62861 17.1142 2.88583C17.3714 3.1425 17.5 3.4625 17.5 3.84583V16.7308L14.9358 14.1667H3.84583Z" fill="black"/>
</svg>
