<svg width="20" height="20" viewBox="0 0 20 20" fill="none" xmlns="http://www.w3.org/2000/svg">
<path d="M7.08366 14.5833H12.917V13.75H7.08366V14.5833ZM7.08366 11.25H12.917V10.4167H7.08366V11.25ZM5.51283 17.5C5.12949 17.5 4.80949 17.3717 4.55283 17.115C4.2956 16.8578 4.16699 16.5375 4.16699 16.1542V3.84583C4.16699 3.4625 4.2956 3.1425 4.55283 2.88583C4.80949 2.62861 5.12949 2.5 5.51283 2.5H12.0837L15.8337 6.25V16.1542C15.8337 16.5375 15.7053 16.8575 15.4487 17.1142C15.1914 17.3714 14.8712 17.5 14.4878 17.5H5.51283ZM11.667 6.66667V3.33333H5.51283C5.38505 3.33333 5.26755 3.38667 5.16033 3.49333C5.05366 3.60056 5.00033 3.71806 5.00033 3.84583V16.1542C5.00033 16.2819 5.05366 16.3994 5.16033 16.5067C5.26755 16.6133 5.38505 16.6667 5.51283 16.6667H14.4878C14.6156 16.6667 14.7331 16.6133 14.8403 16.5067C14.947 16.3994 15.0003 16.2819 15.0003 16.1542V6.66667H11.667Z" fill="black"/>
</svg>
