<svg width="18" height="18" viewBox="0 0 18 18" fill="none" xmlns="http://www.w3.org/2000/svg">
<path fill-rule="evenodd" clip-rule="evenodd" d="M10.2474 16.7317C10.1885 16.8644 10.0924 16.977 9.9707 17.0561C9.84903 17.1352 9.70703 17.1773 9.56191 17.1772C9.20039 17.1772 8.8424 17.106 8.50841 16.9677C8.17441 16.8293 7.87094 16.6265 7.61534 16.3708C7.35974 16.1151 7.157 15.8116 7.01872 15.4776C6.88044 15.1435 6.80932 14.7855 6.80941 14.424V12.5025H3.78766C3.48521 12.506 3.18563 12.4436 2.9097 12.3197C2.63376 12.1958 2.38809 12.0134 2.18972 11.785C1.99136 11.5567 1.84504 11.2879 1.76094 10.9974C1.67683 10.7069 1.65695 10.4015 1.70266 10.1025L2.62366 4.095C2.6984 3.59897 2.94959 3.14656 3.3311 2.82086C3.7126 2.49515 4.19881 2.31802 4.70041 2.322H14.2352C14.509 2.322 14.7802 2.37595 15.0332 2.48078C15.2862 2.58561 15.5161 2.73925 15.7097 2.93294C15.9034 3.12663 16.0569 3.35657 16.1617 3.60962C16.2664 3.86267 16.3203 4.13388 16.3202 4.40775V9.08175C16.3202 9.63472 16.1005 10.165 15.7095 10.5561C15.3185 10.9471 14.7881 11.1667 14.2352 11.1667H12.7202L10.2474 16.7317ZM14.2359 9.6675C14.3911 9.6675 14.5399 9.60586 14.6496 9.49615C14.7593 9.38644 14.8209 9.23765 14.8209 9.08249V4.4085C14.8209 4.25334 14.7593 4.10455 14.6496 3.99484C14.5399 3.88513 14.3911 3.8235 14.2359 3.8235H12.9827V9.6675H14.2352H14.2359ZM4.69291 3.82275C4.55141 3.8212 4.41414 3.87094 4.30646 3.96276C4.19879 4.05458 4.12799 4.18228 4.10716 4.32225L3.18541 10.3297C3.17243 10.4144 3.17819 10.5009 3.20229 10.5831C3.22639 10.6653 3.26825 10.7412 3.32491 10.8054C3.38156 10.8696 3.45164 10.9207 3.53017 10.9548C3.60871 10.989 3.69379 11.0056 3.77941 11.0032H7.55941C7.75833 11.0032 7.94909 11.0823 8.08974 11.2229C8.2304 11.3636 8.30941 11.5543 8.30941 11.7532V14.4232C8.30941 14.9572 8.64166 15.4132 9.11191 15.5932L11.4819 10.2585V3.8235H4.69366L4.69291 3.82275Z" fill="black"/>
</svg>
