<svg width="16" height="16" viewBox="0 0 16 16" fill="none" xmlns="http://www.w3.org/2000/svg">
<path fill-rule="evenodd" clip-rule="evenodd" d="M4.276 12.6667H6.66667C6.84348 12.6667 7.01305 12.7369 7.13807 12.8619C7.2631 12.987 7.33333 13.1565 7.33333 13.3333C7.33333 13.5101 7.2631 13.6797 7.13807 13.8047C7.01305 13.9298 6.84348 14 6.66667 14H2.66667C2.48986 14 2.32029 13.9298 2.19526 13.8047C2.07024 13.6797 2 13.5101 2 13.3333V9.33333C2 9.15652 2.07024 8.98695 2.19526 8.86193C2.32029 8.73691 2.48986 8.66667 2.66667 8.66667C2.84348 8.66667 3.01305 8.73691 3.13807 8.86193C3.2631 8.98695 3.33333 9.15652 3.33333 9.33333V11.724L6.19533 8.862C6.32107 8.74056 6.48947 8.67337 6.66427 8.67488C6.83907 8.6764 7.00627 8.74652 7.12988 8.87012C7.25348 8.99373 7.3236 9.16093 7.32512 9.33573C7.32663 9.51053 7.25944 9.67893 7.138 9.80467L4.276 12.6667ZM11.724 3.33333H9.33333C9.15652 3.33333 8.98695 3.2631 8.86193 3.13807C8.73691 3.01305 8.66667 2.84348 8.66667 2.66667C8.66667 2.48986 8.73691 2.32029 8.86193 2.19526C8.98695 2.07024 9.15652 2 9.33333 2H13.3333C13.5101 2 13.6797 2.07024 13.8047 2.19526C13.9298 2.32029 14 2.48986 14 2.66667V6.66667C14 6.84348 13.9298 7.01305 13.8047 7.13807C13.6797 7.2631 13.5101 7.33333 13.3333 7.33333C13.1565 7.33333 12.987 7.2631 12.8619 7.13807C12.7369 7.01305 12.6667 6.84348 12.6667 6.66667V4.276L9.80467 7.138C9.67893 7.25944 9.51053 7.32663 9.33573 7.32512C9.16093 7.3236 8.99373 7.25348 8.87012 7.12988C8.74652 7.00627 8.6764 6.83907 8.67488 6.66427C8.67337 6.48947 8.74056 6.32107 8.862 6.19533L11.724 3.33333Z" fill="black"/>
</svg>
