<svg width="20" height="20" viewBox="0 0 20 20" fill="none" xmlns="http://www.w3.org/2000/svg">
<path d="M11.4417 17.5C11.2953 17.7528 11.0851 17.9627 10.8321 18.1085C10.579 18.2544 10.2921 18.3312 10 18.3312C9.70792 18.3312 9.42097 18.2544 9.16794 18.1085C8.9149 17.9627 8.70467 17.7528 8.55833 17.5M15 7.00002C15 5.58585 14.4733 4.22919 13.5358 3.22919C12.5975 2.22919 11.325 1.66669 10 1.66669C8.67417 1.66669 7.4025 2.22835 6.46417 3.22919C5.52667 4.22919 5 5.58585 5 7.00002C5 13.2225 2.5 15 2.5 15H17.5C17.5 15 15 13.2225 15 7.00002Z" stroke="#D0CFCE" stroke-width="1.5" stroke-linecap="round" stroke-linejoin="round"/>
</svg>
