<svg width="24" height="24" viewBox="0 0 24 24" fill="none" xmlns="http://www.w3.org/2000/svg">
<path d="M1 5C1 2.79086 2.79086 1 5 1H19C21.2091 1 23 2.79086 23 5V19C23 21.2091 21.2091 23 19 23H5C2.79086 23 1 21.2091 1 19V5Z" stroke="white" stroke-opacity="0.05" stroke-width="2"/>
<path d="M9.37547 11.6016C9.14047 11.8219 9.14047 12.1782 9.37547 12.3961L14.1755 16.8985C14.4105 17.1188 14.7905 17.1188 15.023 16.8985C15.2555 16.6782 15.258 16.3219 15.023 16.1039L10.648 12L15.0255 7.89846C15.2605 7.67815 15.2605 7.3219 15.0255 7.10393C14.7905 6.88596 14.4105 6.88362 14.178 7.10393L9.37547 11.6016Z" fill="#FFFEFE"/>
</svg>
