<svg width="18" height="18" viewBox="0 0 18 18" fill="none" xmlns="http://www.w3.org/2000/svg">
<path fill-rule="evenodd" clip-rule="evenodd" d="M5.28044 6.8325L7.75319 1.26825C7.8121 1.13564 7.90822 1.02296 8.0299 0.94389C8.15157 0.864815 8.29358 0.822735 8.43869 0.822754C8.80021 0.822754 9.1582 0.893974 9.4922 1.03235C9.82619 1.17072 10.1297 1.37353 10.3853 1.62921C10.6409 1.88488 10.8436 2.1884 10.9819 2.52244C11.1202 2.85647 11.1913 3.21448 11.1912 3.576V5.4975H14.2122C14.5146 5.49403 14.8142 5.5564 15.0902 5.68029C15.3661 5.80418 15.6118 5.98663 15.8101 6.21496C16.0085 6.4433 16.1548 6.71207 16.2389 7.00261C16.323 7.29315 16.3429 7.59851 16.2972 7.8975L15.3762 13.905C15.3013 14.4009 15.05 14.8531 14.6685 15.1787C14.2871 15.5042 13.8009 15.6813 13.2994 15.6773H3.76469C3.21171 15.6773 2.68138 15.4576 2.29037 15.0666C1.89936 14.6756 1.67969 14.1452 1.67969 13.5923V8.9175C1.67969 8.36453 1.89936 7.8342 2.29037 7.44319C2.68138 7.05217 3.21171 6.8325 3.76469 6.8325H5.28044ZM3.76544 8.3325C3.68855 8.33241 3.6124 8.34746 3.54134 8.37682C3.47028 8.40617 3.4057 8.44925 3.35129 8.50358C3.29689 8.55791 3.25374 8.62244 3.22429 8.69346C3.19484 8.76449 3.17969 8.84062 3.17969 8.9175V13.5915C3.17969 13.9148 3.44219 14.1765 3.76469 14.1765H5.01794V8.3325H3.76544ZM13.3077 14.1773C13.4492 14.1788 13.5865 14.1291 13.6941 14.0372C13.8018 13.9454 13.8726 13.8177 13.8934 13.6778L14.8144 7.67025C14.8274 7.58566 14.8217 7.49924 14.7976 7.4171C14.7735 7.33497 14.7318 7.25911 14.6752 7.19488C14.6186 7.13066 14.5486 7.07963 14.4702 7.0454C14.3917 7.01116 14.3067 6.99456 14.2212 6.99675H10.4412C10.2423 6.99675 10.0515 6.91774 9.91086 6.77708C9.7702 6.63643 9.69119 6.44567 9.69119 6.24675V3.5775C9.69119 3.0435 9.35819 2.5875 8.88869 2.4075L6.51794 7.7415V14.1765L13.3077 14.1773Z" fill="black"/>
</svg>
