<svg width="14" height="16" viewBox="0 0 14 16" fill="none" xmlns="http://www.w3.org/2000/svg">
<path d="M0 2C0 2.41562 0.334375 2.75 0.75 2.75H13.25C13.6656 2.75 14 2.41562 14 2C14 1.58437 13.6656 1.25 13.25 1.25H0.75C0.334375 1.25 0 1.58437 0 2ZM6 6C6 6.41563 6.33437 6.75 6.75 6.75H13.25C13.6656 6.75 14 6.41563 14 6C14 5.58437 13.6656 5.25 13.25 5.25H6.75C6.33437 5.25 6 5.58437 6 6ZM6.75 9.25C6.33437 9.25 6 9.58438 6 10C6 10.4156 6.33437 10.75 6.75 10.75H13.25C13.6656 10.75 14 10.4156 14 10C14 9.58438 13.6656 9.25 13.25 9.25H6.75ZM0 14C0 14.4156 0.334375 14.75 0.75 14.75H13.25C13.6656 14.75 14 14.4156 14 14C14 13.5844 13.6656 13.25 13.25 13.25H0.75C0.334375 13.25 0 13.5844 0 14ZM3.78125 8.3875C4.025 8.1875 4.025 7.81562 3.78125 7.61562L0.81875 5.175C0.490625 4.90625 0 5.1375 0 5.55937V10.4406C0 10.8625 0.490625 11.0938 0.81875 10.8281L3.78125 8.3875Z" fill="#FFFEFE"/>
</svg>
