<svg width="16" height="16" viewBox="0 0 16 16" fill="none" xmlns="http://www.w3.org/2000/svg">
<path fill-rule="evenodd" clip-rule="evenodd" d="M3.8168 6.16997H5.71213C5.88894 6.16997 6.05851 6.24021 6.18353 6.36523C6.30856 6.49026 6.3788 6.65983 6.3788 6.83664C6.3788 7.01345 6.30856 7.18302 6.18353 7.30804C6.05851 7.43307 5.88894 7.5033 5.71213 7.5033H2.13346C1.95665 7.5033 1.78708 7.43307 1.66206 7.30804C1.53703 7.18302 1.4668 7.01345 1.4668 6.83664V3.25797C1.4668 3.08116 1.53703 2.91159 1.66206 2.78657C1.78708 2.66154 1.95665 2.5913 2.13346 2.5913C2.31027 2.5913 2.47984 2.66154 2.60487 2.78657C2.72989 2.91159 2.80013 3.08116 2.80013 3.25797V5.2953L4.43013 3.76397C5.3561 2.83944 6.55746 2.24088 7.8532 2.0585C9.14893 1.87611 10.4688 2.11977 11.614 2.75277C12.7593 3.38576 13.6677 4.3738 14.2026 5.568C14.7374 6.76221 14.8697 8.09789 14.5794 9.37379C14.2891 10.6497 13.592 11.7967 12.5932 12.642C11.5943 13.4873 10.3478 13.985 9.04149 14.0603C7.73515 14.1355 6.43974 13.7842 5.35045 13.0592C4.26115 12.3342 3.43699 11.2748 3.00213 10.0406C2.94618 9.87461 2.95784 9.69323 3.03458 9.53574C3.11132 9.37824 3.24697 9.25728 3.4122 9.19902C3.57743 9.14076 3.75895 9.14988 3.91751 9.22442C4.07606 9.29895 4.1989 9.4329 4.25946 9.5973C4.51238 10.3158 4.93608 10.9622 5.49411 11.4807C6.05213 11.9992 6.72779 12.3744 7.46293 12.5739C8.19807 12.7735 8.97068 12.7915 9.7143 12.6263C10.4579 12.4611 11.1503 12.1177 11.7318 11.6257C12.3133 11.1337 12.7666 10.5078 13.0526 9.80175C13.3387 9.09575 13.4489 8.33083 13.3738 7.57279C13.2988 6.81475 13.0407 6.0863 12.6217 5.45011C12.2028 4.81392 11.6355 4.28905 10.9688 3.92064C10.0733 3.42675 9.04141 3.23781 8.02905 3.38238C7.01668 3.52695 6.0789 3.99718 5.35746 4.72197L3.8168 6.16997Z" fill="black"/>
</svg>
