<svg width="24" height="24" viewBox="0 0 24 24" fill="none" xmlns="http://www.w3.org/2000/svg">
<path d="M1 5C1 2.79086 2.79086 1 5 1H19C21.2091 1 23 2.79086 23 5V19C23 21.2091 21.2091 23 19 23H5C2.79086 23 1 21.2091 1 19V5Z" stroke="#FFFDFD" stroke-opacity="0.05" stroke-width="2"/>
<path d="M16.6251 11.6016C16.8601 11.8219 16.8601 12.1782 16.6251 12.3961L11.8251 16.8985C11.5901 17.1188 11.2101 17.1188 10.9776 16.8985C10.7451 16.6782 10.7426 16.3219 10.9776 16.1039L15.3526 12.0024L10.9751 7.89846C10.7401 7.67815 10.7401 7.3219 10.9751 7.10393C11.2101 6.88596 11.5901 6.88362 11.8226 7.10393L16.6251 11.6016Z" fill="#FFFEFE"/>
</svg>
