<svg width="20" height="19" viewBox="0 0 20 19" fill="none" xmlns="http://www.w3.org/2000/svg">
<path d="M18.8477 5.15234C18.8477 5.29557 18.8411 5.43555 18.8281 5.57227C18.8151 5.70898 18.7891 5.84896 18.75 5.99219L19.9512 6.49023L19.4727 7.64258L18.2617 7.14453C17.9622 7.6263 17.5716 8.01693 17.0898 8.31641L17.5879 9.53711L16.4355 10.0156L15.9277 8.80469C15.791 8.83724 15.6543 8.86003 15.5176 8.87305C15.3809 8.88607 15.2409 8.89583 15.0977 8.90234C14.9544 8.90234 14.8145 8.89583 14.6777 8.88281C14.541 8.86979 14.401 8.84375 14.2578 8.80469L14.0332 9.35156L12.9492 8.69727L13.1055 8.31641C12.6237 8.01693 12.2331 7.6263 11.9336 7.14453L10.7129 7.64258L10.2344 6.49023L11.4453 5.99219C11.4128 5.85547 11.39 5.71875 11.377 5.58203C11.3639 5.44531 11.3542 5.30208 11.3477 5.15234C11.3477 5.00911 11.3542 4.86914 11.3672 4.73242C11.3802 4.5957 11.4062 4.45898 11.4453 4.32227L10.2344 3.81445L10.7129 2.66211L11.9336 3.16992C12.0833 2.92904 12.2559 2.71094 12.4512 2.51562C12.6465 2.32031 12.8646 2.14453 13.1055 1.98828L12.6074 0.777344L13.7598 0.298828L14.2578 1.5C14.3945 1.46745 14.5312 1.44466 14.668 1.43164C14.8047 1.41862 14.9479 1.40885 15.0977 1.40234C15.2409 1.40234 15.3809 1.40885 15.5176 1.42188C15.6543 1.4349 15.791 1.46094 15.9277 1.5L16.4355 0.298828L17.5879 0.777344L17.0898 1.98828C17.5716 2.28776 17.9622 2.67839 18.2617 3.16016L19.4727 2.66211L19.9512 3.81445L18.75 4.32227C18.7826 4.45898 18.8053 4.5957 18.8184 4.73242C18.8314 4.86914 18.8411 5.00911 18.8477 5.15234ZM15.0977 7.65234C15.4427 7.65234 15.765 7.58724 16.0645 7.45703C16.3639 7.32682 16.6309 7.14779 16.8652 6.91992C17.0996 6.69206 17.2786 6.42839 17.4023 6.12891C17.526 5.82943 17.5911 5.50391 17.5977 5.15234C17.5977 4.80729 17.5326 4.48503 17.4023 4.18555C17.2721 3.88607 17.0931 3.61914 16.8652 3.38477C16.6374 3.15039 16.3737 2.97135 16.0742 2.84766C15.7747 2.72396 15.4492 2.65885 15.0977 2.65234C14.7526 2.65234 14.4303 2.71745 14.1309 2.84766C13.8314 2.97786 13.5645 3.1569 13.3301 3.38477C13.0957 3.61263 12.9167 3.8763 12.793 4.17578C12.6693 4.47526 12.6042 4.80078 12.5977 5.15234C12.5977 5.4974 12.6628 5.81966 12.793 6.11914C12.9232 6.41862 13.1022 6.68555 13.3301 6.91992C13.5579 7.1543 13.8216 7.33333 14.1211 7.45703C14.4206 7.58073 14.7461 7.64583 15.0977 7.65234ZM9.46289 9.80078L10.8203 9.23438L11.25 10.2695V10.416L9.95117 10.9531C9.99674 11.1289 10.0326 11.3047 10.0586 11.4805C10.0846 11.6562 10.0977 11.8385 10.0977 12.0273C10.0977 12.2096 10.0846 12.3887 10.0586 12.5645C10.0326 12.7402 9.99674 12.9193 9.95117 13.1016L11.25 13.6387V13.7852L10.8203 14.8203L9.46289 14.2539C9.27409 14.5664 9.05273 14.8496 8.79883 15.1035C8.54492 15.3574 8.26172 15.582 7.94922 15.7773L8.51562 17.1348L7.35352 17.6133L6.79688 16.2559C6.62109 16.3014 6.44531 16.3372 6.26953 16.3633C6.09375 16.3893 5.91146 16.4023 5.72266 16.4023C5.54036 16.4023 5.36133 16.3893 5.18555 16.3633C5.00977 16.3372 4.83073 16.3014 4.64844 16.2559L4.08203 17.6133L2.92969 17.1348L3.49609 15.7676C2.86458 15.39 2.36003 14.8854 1.98242 14.2539L0.615234 14.8203L0.146484 13.668L1.49414 13.1016C1.44857 12.9258 1.41276 12.75 1.38672 12.5742C1.36068 12.3984 1.34766 12.2161 1.34766 12.0273C1.34766 11.8451 1.36068 11.666 1.38672 11.4902C1.41276 11.3145 1.44857 11.1354 1.49414 10.9531L0.146484 10.3965L0.615234 9.23438L1.98242 9.80078C2.36003 9.16927 2.86458 8.66471 3.49609 8.28711L2.92969 6.92969L4.08203 6.45117L4.64844 7.79883C4.82422 7.75326 5 7.71745 5.17578 7.69141C5.35156 7.66536 5.53385 7.65234 5.72266 7.65234C5.90495 7.65234 6.08398 7.66536 6.25977 7.69141C6.43555 7.71745 6.61458 7.75326 6.79688 7.79883L7.35352 6.45117L8.51562 6.92969L7.94922 8.28711C8.58073 8.66471 9.08529 9.16927 9.46289 9.80078ZM5.72266 15.1523C6.15234 15.1523 6.55599 15.071 6.93359 14.9082C7.3112 14.7454 7.63997 14.5241 7.91992 14.2441C8.19987 13.9642 8.42448 13.6322 8.59375 13.248C8.76302 12.8639 8.84766 12.457 8.84766 12.0273C8.84766 11.5977 8.76628 11.194 8.60352 10.8164C8.44076 10.4388 8.21615 10.11 7.92969 9.83008C7.64323 9.55013 7.3112 9.32552 6.93359 9.15625C6.55599 8.98698 6.15234 8.90234 5.72266 8.90234C5.29297 8.90234 4.88932 8.98372 4.51172 9.14648C4.13411 9.30924 3.80208 9.53385 3.51562 9.82031C3.22917 10.1068 3.00456 10.4388 2.8418 10.8164C2.67904 11.194 2.59766 11.5977 2.59766 12.0273C2.59766 12.457 2.67904 12.8607 2.8418 13.2383C3.00456 13.6159 3.22591 13.9479 3.50586 14.2344C3.78581 14.5208 4.11784 14.7454 4.50195 14.9082C4.88607 15.071 5.29297 15.1523 5.72266 15.1523ZM12.5 19V10.25L19.7949 14.625L12.5 19ZM13.75 12.457V16.793L17.3633 14.625L13.75 12.457Z" fill="white"/>
</svg>
