<svg width="16" height="16" viewBox="0 0 16 16" fill="none" xmlns="http://www.w3.org/2000/svg">
<path fill-rule="evenodd" clip-rule="evenodd" d="M7.99967 11.2966L4.44567 14.4953C4.01634 14.882 3.33301 14.5773 3.33301 14V3.33331C3.33301 2.80288 3.54372 2.29417 3.91879 1.9191C4.29387 1.54403 4.80257 1.33331 5.33301 1.33331H10.6663C11.1968 1.33331 11.7055 1.54403 12.0806 1.9191C12.4556 2.29417 12.6663 2.80288 12.6663 3.33331V14C12.6663 14.5773 11.983 14.882 11.5537 14.4953L7.99967 11.2966ZM11.333 12.5033V3.33331C11.333 3.1565 11.2628 2.98693 11.1377 2.86191C11.0127 2.73688 10.8432 2.66665 10.6663 2.66665H5.33301C5.1562 2.66665 4.98663 2.73688 4.8616 2.86191C4.73658 2.98693 4.66634 3.1565 4.66634 3.33331V12.5033L7.55367 9.90465C7.67609 9.79446 7.83497 9.73349 7.99967 9.73349C8.16438 9.73349 8.32325 9.79446 8.44567 9.90465L11.333 12.5033Z" fill="black"/>
</svg>
