<svg width="16" height="16" viewBox="0 0 16 16" fill="none" xmlns="http://www.w3.org/2000/svg">
<path fill-rule="evenodd" clip-rule="evenodd" d="M4.78242 3.74598C5.1198 3.49378 5.48564 3.28211 5.87242 3.11531L6.06576 2.34331C6.13786 2.05486 6.30431 1.79878 6.53864 1.61578C6.77298 1.43278 7.06176 1.33336 7.35909 1.33331H8.64042C8.93775 1.33336 9.22653 1.43278 9.46087 1.61578C9.69521 1.79878 9.86165 2.05486 9.93376 2.34331L10.1271 3.11531C10.5164 3.28331 10.8818 3.49531 11.2171 3.74598L11.9838 3.52665C12.2696 3.44489 12.5747 3.46104 12.8503 3.57254C13.126 3.68403 13.3564 3.88446 13.5051 4.14198L14.1458 5.25198C14.2943 5.50945 14.3525 5.80917 14.3112 6.10353C14.2699 6.39789 14.1314 6.67 13.9178 6.87665L13.3444 7.43131C13.3932 7.84945 13.3932 8.27184 13.3444 8.68998L13.9178 9.24331C14.1316 9.45 14.2702 9.72224 14.3115 10.0167C14.3528 10.3112 14.2945 10.6111 14.1458 10.8686L13.5058 11.9786C13.3571 12.2363 13.1265 12.4368 12.8507 12.5483C12.5749 12.6598 12.2697 12.6759 11.9838 12.594L11.2171 12.3746C10.8797 12.6268 10.5139 12.8385 10.1271 13.0053L9.93376 13.7773C9.86165 14.0658 9.69521 14.3218 9.46087 14.5048C9.22653 14.6878 8.93775 14.7873 8.64042 14.7873H7.35976C7.06243 14.7873 6.77365 14.6878 6.53931 14.5048C6.30497 14.3218 6.13853 14.0658 6.06642 13.7773L5.87309 13.0053C5.4863 12.8385 5.12046 12.6268 4.78309 12.3746L4.01642 12.594C3.73054 12.6757 3.42553 12.6596 3.14988 12.5481C2.87422 12.4366 2.64375 12.2362 2.49509 11.9786L1.85442 10.8686C1.70589 10.6112 1.64766 10.3115 1.68897 10.0171C1.73028 9.72274 1.86876 9.45062 2.08242 9.24398L2.65576 8.68998C2.60699 8.27162 2.60699 7.84901 2.65576 7.43065L2.08242 6.87731C1.86861 6.67062 1.73002 6.39839 1.68871 6.10388C1.6474 5.80938 1.70573 5.50952 1.85442 5.25198L2.49442 4.14198C2.64311 3.88433 2.8737 3.6838 3.14949 3.5723C3.42529 3.4608 3.73045 3.44473 4.01642 3.52665L4.78309 3.74598H4.78242ZM3.64909 4.80865L3.00842 5.91865L4.05509 6.93065L3.97909 7.58531C3.94232 7.90091 3.94232 8.21971 3.97909 8.53531L4.05509 9.18998L3.00842 10.202L3.64842 11.312L5.05109 10.9113L5.58042 11.3066C5.83376 11.496 6.10909 11.6553 6.40042 11.7806L7.00576 12.042L7.35909 13.454H8.64042L8.99376 12.042L9.59976 11.7806C9.8907 11.6553 10.1659 11.4962 10.4198 11.3066L10.9484 10.9113L12.3504 11.312L12.9911 10.202L11.9444 9.18998L12.0204 8.53531C12.0571 8.21971 12.0571 7.90092 12.0204 7.58531L11.9444 6.93065L12.9911 5.91865L12.3511 4.80865L10.9484 5.20931L10.4191 4.81398C10.1652 4.62464 9.89001 4.46578 9.59909 4.34065L8.99376 4.07931L8.63976 2.66665H7.35976L7.00642 4.07931L6.40042 4.33998C6.10946 4.4653 5.83424 4.6244 5.58042 4.81398L5.05176 5.20931L3.64909 4.80865ZM7.99976 10.6666C8.707 10.6666 9.38528 10.3857 9.88537 9.8856C10.3855 9.3855 10.6664 8.70722 10.6664 7.99998C10.6664 7.29274 10.3855 6.61446 9.88537 6.11436C9.38528 5.61426 8.707 5.33331 7.99976 5.33331C7.29251 5.33331 6.61424 5.61426 6.11414 6.11436C5.61404 6.61446 5.33309 7.29274 5.33309 7.99998C5.33309 8.70722 5.61404 9.3855 6.11414 9.8856C6.61424 10.3857 7.29251 10.6666 7.99976 10.6666ZM7.99976 9.33331C7.64613 9.33331 7.307 9.19284 7.05695 8.94279C6.8069 8.69274 6.66642 8.3536 6.66642 7.99998C6.66642 7.64636 6.8069 7.30722 7.05695 7.05717C7.307 6.80712 7.64613 6.66665 7.99976 6.66665C8.35338 6.66665 8.69252 6.80712 8.94256 7.05717C9.19261 7.30722 9.33309 7.64636 9.33309 7.99998C9.33309 8.3536 9.19261 8.69274 8.94256 8.94279C8.69252 9.19284 8.35338 9.33331 7.99976 9.33331Z" fill="black"/>
</svg>
