<svg width="16" height="16" viewBox="0 0 16 16" fill="none" xmlns="http://www.w3.org/2000/svg">
<path d="M3.75 6.49999C3.6837 6.49999 3.62011 6.52633 3.57322 6.57322C3.52634 6.6201 3.5 6.68369 3.5 6.74999V13.25C3.5 13.388 3.612 13.5 3.75 13.5H12.25C12.3163 13.5 12.3799 13.4737 12.4268 13.4268C12.4737 13.3799 12.5 13.3163 12.5 13.25V6.74999C12.5 6.68369 12.4737 6.6201 12.4268 6.57322C12.3799 6.52633 12.3163 6.49999 12.25 6.49999H11.25C11.0511 6.49999 10.8603 6.42098 10.7197 6.28032C10.579 6.13967 10.5 5.9489 10.5 5.74999C10.5 5.55108 10.579 5.36031 10.7197 5.21966C10.8603 5.07901 11.0511 4.99999 11.25 4.99999H12.25C13.216 4.99999 14 5.78399 14 6.74999V13.25C14 13.7141 13.8156 14.1592 13.4874 14.4874C13.1592 14.8156 12.7141 15 12.25 15H3.75C3.28587 15 2.84075 14.8156 2.51256 14.4874C2.18437 14.1592 2 13.7141 2 13.25V6.74999C2 5.78399 2.784 4.99999 3.75 4.99999H4.75C4.94891 4.99999 5.13968 5.07901 5.28033 5.21966C5.42098 5.36031 5.5 5.55108 5.5 5.74999C5.5 5.9489 5.42098 6.13967 5.28033 6.28032C5.13968 6.42098 4.94891 6.49999 4.75 6.49999H3.75ZM7.823 0.176993C7.84622 0.153711 7.87381 0.13524 7.90418 0.122637C7.93456 0.110034 7.96712 0.103546 8 0.103546C8.03288 0.103546 8.06544 0.110034 8.09582 0.122637C8.12619 0.13524 8.15378 0.153711 8.177 0.176993L11.073 3.07299C11.1081 3.10796 11.1319 3.15254 11.1416 3.2011C11.1513 3.24965 11.1464 3.29999 11.1274 3.34572C11.1084 3.39146 11.0763 3.43054 11.0351 3.458C10.9939 3.48547 10.9455 3.50008 10.896 3.49999H8.75V9.24999C8.75 9.44891 8.67098 9.63967 8.53033 9.78032C8.38968 9.92098 8.19891 9.99999 8 9.99999C7.80109 9.99999 7.61032 9.92098 7.46967 9.78032C7.32902 9.63967 7.25 9.44891 7.25 9.24999V3.49999H5.104C5.05449 3.50008 5.00607 3.48547 4.96487 3.458C4.92368 3.43054 4.89157 3.39146 4.87261 3.34572C4.85365 3.29999 4.8487 3.24965 4.85838 3.2011C4.86806 3.15254 4.89195 3.10796 4.927 3.07299L7.823 0.176993Z" fill="black"/>
</svg>
