<svg width="18" height="18" viewBox="0 0 18 18" fill="none" xmlns="http://www.w3.org/2000/svg">
<path fill-rule="evenodd" clip-rule="evenodd" d="M8.54587 1.55549C8.84429 1.48093 9.15646 1.48093 9.45487 1.55549C9.99712 1.69124 10.3436 2.10674 10.5994 2.50199C10.8559 2.89799 11.1266 3.44624 11.4476 4.09724L11.7416 4.69349C11.9681 5.15099 12.0026 5.19374 12.0311 5.21849C12.0509 5.23649 12.0725 5.25233 12.0956 5.26574C12.1279 5.28449 12.1781 5.30474 12.6851 5.37824L13.3429 5.47424C14.0614 5.57849 14.6659 5.66624 15.1219 5.78774C15.5764 5.90924 16.0789 6.11024 16.3751 6.58424C16.5383 6.84483 16.6349 7.14154 16.6564 7.44824C16.6954 8.00624 16.4066 8.46374 16.1104 8.82899C15.8126 9.19574 15.3754 9.62249 14.8549 10.1287L14.3794 10.593C14.0126 10.95 13.9841 10.9957 13.9684 11.0302C13.9575 11.0546 13.9492 11.0799 13.9436 11.106C13.9361 11.1435 13.9324 11.1975 14.0186 11.7015L14.1311 12.3562C14.2541 13.0717 14.3576 13.6747 14.3824 14.1457C14.4079 14.616 14.3719 15.1552 14.0126 15.5842C13.8151 15.8198 13.5627 16.0032 13.2776 16.1182C12.7586 16.3275 12.2351 16.1947 11.7956 16.0252C11.3546 15.8557 10.8139 15.5715 10.1719 15.2332L9.58312 14.9242C9.13087 14.6865 9.07762 14.673 9.04012 14.6692C9.0137 14.6664 8.98705 14.6664 8.96062 14.6692C8.92312 14.673 8.87062 14.6865 8.41762 14.9242L7.82887 15.2332C7.18687 15.5707 6.64612 15.8557 6.20512 16.0252C5.76637 16.1947 5.24212 16.3275 4.72312 16.1182C4.43807 16.0032 4.18566 15.8198 3.98812 15.5842C3.62812 15.1552 3.59287 14.616 3.61837 14.1457C3.64312 13.6747 3.74662 13.0725 3.86962 12.3562L3.98212 11.7015C4.06837 11.1975 4.06462 11.1427 4.05712 11.106C4.05159 11.0799 4.04329 11.0545 4.03237 11.0302C4.01737 10.9957 3.98737 10.95 3.62137 10.593L3.14587 10.1287C2.62537 9.62249 2.18812 9.19574 1.89037 8.82899C1.59412 8.46374 1.30537 8.00624 1.34437 7.44824C1.36587 7.14154 1.46245 6.84483 1.62562 6.58424C1.92187 6.10949 2.42437 5.90924 2.87812 5.78774C3.33562 5.66624 3.93937 5.57774 4.65787 5.47424L5.31562 5.37824C5.82187 5.30474 5.87287 5.28449 5.90512 5.26574C5.92821 5.25257 5.94983 5.23698 5.96962 5.21924C5.99812 5.19374 6.03262 5.15174 6.25912 4.69349L6.55312 4.09724C6.87412 3.44624 7.14487 2.89799 7.40137 2.50199C7.65712 2.10674 8.00362 1.69199 8.54587 1.55549ZM8.91562 3.00974C8.89837 3.01949 8.81662 3.07649 8.66062 3.31724C8.45737 3.63074 8.22562 4.09874 7.87687 4.80374L7.60387 5.35724L7.56637 5.43449C7.40662 5.75999 7.24537 6.08849 6.97537 6.33224C6.87649 6.42148 6.76838 6.49992 6.65287 6.56624C6.33787 6.74699 5.97562 6.79874 5.61712 6.85049C5.58862 6.85446 5.56012 6.85846 5.53162 6.86249L4.92037 6.95174C4.14262 7.06424 3.62662 7.14074 3.26512 7.23674C2.98762 7.31099 2.90812 7.37174 2.89387 7.38449C2.86418 7.43375 2.84622 7.48918 2.84137 7.54649C2.84512 7.56524 2.87437 7.66124 3.05512 7.88399C3.29062 8.17349 3.66337 8.53949 4.22662 9.08774L4.66912 9.51899L4.73062 9.57899C4.99012 9.83099 5.25337 10.086 5.40187 10.4175C5.45587 10.539 5.49712 10.6665 5.52487 10.797C5.59987 11.1525 5.53687 11.5132 5.47462 11.8702L5.45962 11.955L5.35612 12.5632C5.22262 13.338 5.13562 13.8532 5.11612 14.226C5.10112 14.5125 5.13337 14.607 5.14162 14.625C5.17912 14.6685 5.22637 14.7022 5.27887 14.7247C5.29837 14.727 5.39887 14.7292 5.66587 14.6257C6.01462 14.4907 6.47737 14.2492 7.17337 13.8832L7.71937 13.5967L7.79587 13.5562C8.11612 13.3867 8.44012 13.2157 8.80087 13.1775C8.93362 13.1625 9.06712 13.1625 9.19987 13.1775C9.56062 13.2157 9.88462 13.3875 10.2049 13.5562L10.2814 13.5967L10.8274 13.884C11.5234 14.2492 11.9861 14.4915 12.3349 14.6265C12.6026 14.7292 12.7024 14.727 12.7219 14.724C12.7746 14.7019 12.8215 14.668 12.8591 14.625C12.8666 14.607 12.9004 14.5125 12.8846 14.226C12.8651 13.8532 12.7781 13.338 12.6446 12.5632L12.5404 11.9557L12.5254 11.8702C12.4639 11.5132 12.4009 11.1525 12.4759 10.797C12.5036 10.6665 12.5449 10.539 12.5989 10.4175C12.7474 10.086 13.0106 9.83099 13.2701 9.57899C13.2909 9.55905 13.3117 9.53905 13.3324 9.51899L13.7749 9.08774C14.3374 8.53949 14.7101 8.17349 14.9456 7.88324C15.1264 7.66124 15.1556 7.56524 15.1594 7.54574C15.1544 7.48869 15.1365 7.43353 15.1069 7.38449C15.0919 7.37174 15.0124 7.31099 14.7356 7.23749C14.3741 7.14074 13.8581 7.06499 13.0804 6.95174L12.4691 6.86249L12.3844 6.85049C12.0251 6.79949 11.6621 6.74699 11.3479 6.56624C11.2324 6.49992 11.1243 6.42148 11.0254 6.33224C10.7554 6.08849 10.5941 5.75999 10.4344 5.43449C10.4219 5.40872 10.4094 5.38297 10.3969 5.35724L10.1239 4.80374C9.77587 4.09874 9.54337 3.63074 9.34012 3.31724C9.18412 3.07649 9.10237 3.01949 9.08512 3.00974C9.02936 2.99681 8.97138 2.99681 8.91562 3.00974Z" fill="black"/>
</svg>
