<svg width="14" height="14" viewBox="0 0 14 14" fill="none" xmlns="http://www.w3.org/2000/svg">
<g clip-path="url(#clip0_1_3931)">
<path d="M11.6211 0.847645L13.8086 3.03515C14.0656 3.29218 14.0656 3.7078 13.8086 3.9621L11.6211 6.1496C11.3641 6.40663 10.9484 6.40663 10.6941 6.1496C10.4398 5.89257 10.4371 5.47694 10.6941 5.22265L11.7605 4.15624H9.625C9.28047 4.15624 8.95781 4.31757 8.75 4.59374L7.49219 6.26991L6.67188 5.17616L7.7 3.80624C8.15391 3.19921 8.86758 2.84374 9.625 2.84374H11.7605L10.6914 1.77733C10.4344 1.5203 10.4344 1.10468 10.6914 0.85038C10.9484 0.596083 11.3641 0.593349 11.6184 0.85038L11.6211 0.847645ZM5.57812 8.82382L4.55 10.1937C4.09609 10.8008 3.38242 11.1562 2.625 11.1562H0.65625C0.292578 11.1562 0 10.8637 0 10.5C0 10.1363 0.292578 9.84374 0.65625 9.84374H2.625C2.96953 9.84374 3.29219 9.68241 3.5 9.40624L4.75781 7.73007L5.57812 8.82382ZM10.6914 7.84764C10.9484 7.59061 11.3641 7.59061 11.6184 7.84764L13.8059 10.0351C14.0629 10.2922 14.0629 10.7078 13.8059 10.9621L11.6184 13.1496C11.3613 13.4066 10.9457 13.4066 10.6914 13.1496C10.4371 12.8926 10.4344 12.4769 10.6914 12.2226L11.7578 11.1562H9.625C8.86758 11.1562 8.15391 10.8008 7.7 10.1937L3.5 4.59374C3.29219 4.31757 2.96953 4.15624 2.625 4.15624H0.65625C0.292578 4.15624 0 3.86366 0 3.49999C0 3.13632 0.292578 2.84374 0.65625 2.84374H2.625C3.38242 2.84374 4.09609 3.19921 4.55 3.80624L8.75 9.40624C8.95781 9.68241 9.28047 9.84374 9.625 9.84374H11.7605L10.6941 8.77733C10.4371 8.5203 10.4371 8.10468 10.6941 7.85038L10.6914 7.84764Z" fill="#FFFEFE"/>
</g>
<defs>
<clipPath id="clip0_1_3931">
<rect width="14" height="14" fill="white"/>
</clipPath>
</defs>
</svg>
