<svg width="30" height="30" viewBox="0 0 30 30" fill="none" xmlns="http://www.w3.org/2000/svg">
<path d="M8.33301 20C8.33301 19.1159 8.6842 18.2681 9.30932 17.6429C9.93444 17.0178 10.7823 16.6666 11.6663 16.6666H18.333C19.2171 16.6666 20.0649 17.0178 20.69 17.6429C21.3152 18.2681 21.6663 19.1159 21.6663 20C21.6663 20.442 21.4907 20.8659 21.1782 21.1785C20.8656 21.491 20.4417 21.6666 19.9997 21.6666H9.99967C9.55765 21.6666 9.13372 21.491 8.82116 21.1785C8.5086 20.8659 8.33301 20.442 8.33301 20Z" stroke="#D0CFCE" stroke-width="2" stroke-linejoin="round"/>
<path d="M15 13.3333C16.3807 13.3333 17.5 12.214 17.5 10.8333C17.5 9.4526 16.3807 8.33331 15 8.33331C13.6193 8.33331 12.5 9.4526 12.5 10.8333C12.5 12.214 13.6193 13.3333 15 13.3333Z" stroke="#D0CFCE" stroke-width="2"/>
<circle cx="15" cy="15" r="14.5" stroke="#FFE94D" stroke-opacity="0.3"/>
</svg>
