<svg width="7" height="5" viewBox="0 0 7 5" fill="none" xmlns="http://www.w3.org/2000/svg">
<path fill-rule="evenodd" clip-rule="evenodd" d="M5.96431 4.80467C6.07365 4.92611 6.22008 4.99331 6.37208 4.99179C6.52408 4.99027 6.66948 4.92016 6.77696 4.79655C6.88445 4.67294 6.94541 4.50574 6.94673 4.33094C6.94805 4.15614 6.88962 3.98774 6.78402 3.862L3.88547 0.528672C3.77676 0.403691 3.62934 0.333481 3.47562 0.333481C3.3219 0.333481 3.17448 0.403691 3.06576 0.528672L0.167213 3.862C0.111845 3.9235 0.0676812 3.99707 0.0372992 4.0784C0.00691719 4.15974 -0.00907486 4.24722 -0.00974374 4.33574C-0.0104126 4.42426 0.00425492 4.51204 0.0334033 4.59397C0.0625516 4.67591 0.105597 4.75034 0.160027 4.81293C0.214458 4.87553 0.279184 4.92503 0.350428 4.95855C0.421672 4.99207 0.498008 5.00894 0.574982 5.00817C0.651955 5.0074 0.728025 4.98901 0.798752 4.95407C0.869479 4.91913 0.933447 4.86834 0.986923 4.80467L3.47562 1.94267L5.96431 4.80467Z" fill="black"/>
</svg>
